<svg width="116" height="116" viewBox="0 0 116 116" fill="none" xmlns="http://www.w3.org/2000/svg">
<rect width="116" height="116" rx="58" fill="#F7F7F7"/>
<g clip-path="url(#clip0_592_5912)">
<path d="M73.6703 73.6701H69.1931V69.1929H73.6703V73.6701Z" fill="#007AFF"/>
<path d="M60.2388 73.6701H64.716V69.1929H60.2388V73.6701Z" fill="#007AFF"/>
<path d="M82.6247 73.6701H78.1475V69.1929H82.6247V73.6701Z" fill="#007AFF"/>
<path fill-rule="evenodd" clip-rule="evenodd" d="M37.8526 51.2842V40.0912C37.8526 31.4368 44.8684 24.421 53.5228 24.421C62.1772 24.421 69.193 31.4368 69.193 40.0912V51.2842H75.9087C79.6177 51.2842 82.6245 54.2909 82.6245 58V60.4625C87.7335 61.4995 91.5789 66.0165 91.5789 71.4315C91.5789 76.8467 87.7335 81.3638 82.6245 82.4007V84.8631C82.6245 88.572 79.6177 91.5789 75.9087 91.5789H31.1368C27.4278 91.5789 24.421 88.572 24.421 84.8631V58C24.421 54.2909 27.4278 51.2842 31.1368 51.2842H37.8526ZM42.3298 40.0912C42.3298 33.9095 47.3411 28.8982 53.5228 28.8982C59.7045 28.8982 64.7158 33.9095 64.7158 40.0912V51.2842H42.3298V40.0912ZM62.4772 64.7158C58.7681 64.7158 55.7614 67.7225 55.7614 71.4315C55.7614 75.1405 58.7681 78.1473 62.4772 78.1473H80.3859C84.0948 78.1473 87.1017 75.1405 87.1017 71.4315C87.1017 67.7225 84.0948 64.7158 80.3859 64.7158H62.4772Z" fill="#007AFF"/>
</g>
<defs>
<clipPath id="clip0_592_5912">
<rect width="67.1579" height="67.1579" fill="white" transform="translate(24.421 24.421)"/>
</clipPath>
</defs>
</svg>
