<svg width="191" height="145" viewBox="0 0 191 145" fill="none" xmlns="http://www.w3.org/2000/svg">
<g filter="url(#filter0_d_968_1917)">
<g clip-path="url(#clip0_968_1917)">
<rect x="10" y="6" width="171" height="125" rx="16" fill="url(#paint0_linear_968_1917)"/>
<g opacity="0.3">
<path d="M258.574 32.6702L239.729 117.049C238.046 124.614 231.559 129.954 224.11 129.925L161.583 129.718C160.466 129.468 159.404 129.077 158.421 128.584C155.875 127.31 153.816 125.291 152.458 122.89C152.387 122.765 152.316 122.632 152.246 122.5C152.033 122.109 151.849 121.719 151.687 121.321C151.46 120.769 151.269 120.201 151.114 119.627C151.043 119.354 150.979 119.082 150.923 118.809C150.873 118.573 150.824 118.33 150.788 118.087C150.675 117.439 150.597 116.761 150.548 116.069C150.548 111.31 152.896 107.119 156.448 104.681L171.536 36.007C173.213 28.3758 179.749 22.9691 187.269 22.9912L240.762 23.1606L251.387 23.1974C256.148 23.2121 259.657 27.838 258.582 32.6628L258.574 32.6702Z" fill="url(#paint1_linear_968_1917)"/>
<path style="mix-blend-mode:overlay" opacity="0.8" d="M240.812 7.69181H176.941C169.683 7.69181 163.394 12.9144 161.781 20.2804L142.469 108.475C142.469 108.475 138.932 124.319 151.276 128.621C154.785 129.998 161.661 129.689 161.661 129.689C155.089 128.179 152.536 122.86 152.536 122.86C152.465 122.735 152.394 122.603 152.323 122.47C152.118 122.087 151.934 121.697 151.765 121.292C151.319 120.341 150.534 117.616 150.647 115.273C150.93 110.611 153.158 106.847 156.525 104.644C160.918 102.368 163.373 102.633 170.206 102.405H215.954C220.163 102.405 223.82 99.3774 224.775 95.1051L226.572 87.054C226.968 85.2566 225.659 83.5403 223.891 83.5403H180.987C179.544 83.5403 178.483 82.1482 178.808 80.6823L181.893 66.8562C182.19 65.5229 183.336 64.5727 184.651 64.5727H228.255C230.208 64.5727 231.899 63.1731 232.344 61.1917L235.032 49.1334C235.436 47.3361 234.127 45.6124 232.351 45.6124H189.518C188.082 45.6124 187.014 44.2276 187.333 42.7691L190.367 28.9503C190.657 27.6097 191.803 26.6521 193.126 26.6521H237.869C239.149 26.6521 240.26 25.7387 240.55 24.4349L240.84 23.1385L243.5 11.2054C243.903 9.40811 242.594 7.69181 240.819 7.69181L240.812 7.69181Z" fill="url(#paint2_linear_968_1917)"/>
<g style="mix-blend-mode:overlay" opacity="0.8">
<path d="M187.092 22.9912L187.12 23.3595L240.394 23.47L240.203 24.3171C239.948 25.4514 238.986 26.247 237.869 26.247H193.126C191.626 26.247 190.353 27.3077 190.02 28.8325L186.986 42.6512C186.809 43.4541 186.993 44.2865 187.488 44.9273C187.983 45.5756 188.726 45.9439 189.518 45.9439H232.351C233.087 45.9439 233.773 46.2901 234.233 46.8867C234.692 47.4907 234.855 48.2642 234.692 49.0082L232.004 61.0664C231.594 62.8932 230.052 64.1602 228.262 64.1602H184.658C183.166 64.1602 181.892 65.2135 181.553 66.7236L178.469 80.5497C178.292 81.36 178.469 82.1923 178.964 82.8406C179.459 83.4888 180.195 83.8571 180.994 83.8571H223.898C224.633 83.8571 225.312 84.2033 225.772 84.7999C226.232 85.3966 226.402 86.17 226.232 86.9214L224.435 94.9725C223.509 99.1049 220.028 101.985 215.961 101.985H170.199C169.301 102.014 168.48 102.037 167.716 102.059C162.934 102.184 160.6 102.243 157.027 103.974L171.982 35.8818C173.602 28.501 179.813 23.3447 187.085 23.3447V22.9764M187.092 22.9912C179.699 22.9912 173.29 28.3095 171.642 35.8155L156.518 104.652C161.003 102.324 163.373 102.596 170.206 102.368H215.954C220.163 102.368 223.82 99.3406 224.775 95.0683L226.572 87.0171C226.968 85.2198 225.659 83.5035 223.891 83.5035H180.987C179.544 83.5035 178.483 82.1113 178.808 80.6455L181.892 66.8193C182.189 65.4861 183.335 64.5359 184.651 64.5359H228.255C230.208 64.5359 231.898 63.1363 232.344 61.1548L235.032 49.0965C235.435 47.2992 234.127 45.5756 232.351 45.5756H189.518C188.082 45.5756 187.014 44.1907 187.332 42.7323L190.367 28.9135C190.657 27.5729 191.803 26.6153 193.126 26.6153H237.869C239.149 26.6153 240.26 25.6945 240.55 24.3981L240.84 23.1016L187.12 22.9912H187.092Z" fill="url(#paint3_linear_968_1917)"/>
</g>
</g>
</g>
<rect x="10.5" y="6.5" width="170" height="124" rx="15.5" stroke="#ECECEC"/>
</g>
<defs>
<filter id="filter0_d_968_1917" x="0" y="0" width="191" height="145" filterUnits="userSpaceOnUse" color-interpolation-filters="sRGB">
<feFlood flood-opacity="0" result="BackgroundImageFix"/>
<feColorMatrix in="SourceAlpha" type="matrix" values="0 0 0 0 0 0 0 0 0 0 0 0 0 0 0 0 0 0 127 0" result="hardAlpha"/>
<feOffset dy="4"/>
<feGaussianBlur stdDeviation="5"/>
<feComposite in2="hardAlpha" operator="out"/>
<feColorMatrix type="matrix" values="0 0 0 0 0 0 0 0 0 0 0 0 0 0 0 0 0 0 0.1 0"/>
<feBlend mode="normal" in2="BackgroundImageFix" result="effect1_dropShadow_968_1917"/>
<feBlend mode="normal" in="SourceGraphic" in2="effect1_dropShadow_968_1917" result="shape"/>
</filter>
<linearGradient id="paint0_linear_968_1917" x1="10" y1="-7.00001" x2="198.067" y2="96.4842" gradientUnits="userSpaceOnUse">
<stop stop-color="#3395FF"/>
<stop offset="1" stop-color="#004999"/>
</linearGradient>
<linearGradient id="paint1_linear_968_1917" x1="150.548" y1="76.4542" x2="258.773" y2="76.4542" gradientUnits="userSpaceOnUse">
<stop stop-color="#23376E"/>
<stop offset="1" stop-color="#0457F1"/>
</linearGradient>
<linearGradient id="paint2_linear_968_1917" x1="142.003" y1="68.7051" x2="243.571" y2="68.7051" gradientUnits="userSpaceOnUse">
<stop stop-color="#3AADFF"/>
<stop offset="0.24" stop-color="#45C1F9"/>
<stop offset="0.49" stop-color="#4DCFF6"/>
<stop offset="0.71" stop-color="#50D4F5"/>
</linearGradient>
<linearGradient id="paint3_linear_968_1917" x1="156.518" y1="63.8213" x2="240.84" y2="63.8213" gradientUnits="userSpaceOnUse">
<stop stop-color="#50D4F5" stop-opacity="0"/>
<stop offset="0.41" stop-color="#50D4F5"/>
<stop offset="0.45" stop-color="#5ED7F5"/>
<stop offset="0.59" stop-color="#97E5F9"/>
<stop offset="0.72" stop-color="#C4F0FB"/>
<stop offset="0.84" stop-color="#E4F8FD"/>
<stop offset="0.93" stop-color="#F7FDFE"/>
<stop offset="1" stop-color="white"/>
</linearGradient>
<clipPath id="clip0_968_1917">
<rect x="10" y="6" width="171" height="125" rx="16" fill="white"/>
</clipPath>
</defs>
</svg>
