<svg width="191" height="145" viewBox="0 0 191 145" fill="none" xmlns="http://www.w3.org/2000/svg">
<g filter="url(#filter0_d_968_1935)">
<g clip-path="url(#clip0_968_1935)">
<rect x="10" y="6" width="171" height="125" rx="16" fill="url(#paint0_linear_968_1935)"/>
<g opacity="0.2">
<path d="M76.5487 22.3746L55.283 121.604C53.3832 130.5 46.0631 136.78 37.6574 136.746L-32.9011 136.503C-34.1624 136.209 -35.3598 135.75 -36.4693 135.169C-39.3431 133.671 -41.666 131.297 -43.1987 128.473C-43.2785 128.326 -43.3583 128.17 -43.4382 128.014C-43.6777 127.555 -43.8852 127.096 -44.0688 126.628C-44.3242 125.978 -44.5398 125.311 -44.7154 124.636C-44.7952 124.315 -44.8671 123.994 -44.9309 123.674C-44.9868 123.397 -45.0427 123.111 -45.0826 122.825C-45.2103 122.063 -45.2981 121.266 -45.354 120.452C-45.354 114.856 -42.7038 109.927 -38.6965 107.059L-21.6695 26.2987C-19.7777 17.3243 -12.4017 10.9661 -3.91617 10.992L56.4485 11.1913L68.4384 11.2346C73.8107 11.2519 77.7701 16.692 76.5567 22.3659L76.5487 22.3746Z" fill="url(#paint1_linear_968_1935)"/>
<path style="mix-blend-mode:overlay" opacity="0.8" d="M56.5042 -7H-15.5709C-23.7611 -7 -30.8577 -0.858279 -32.6777 7.80423L-54.4703 111.52C-54.4703 111.52 -58.4616 130.154 -44.5319 135.212C-40.5725 136.832 -32.8134 136.469 -32.8134 136.469C-40.2293 134.693 -43.111 128.438 -43.111 128.438C-43.1908 128.291 -43.2707 128.135 -43.3505 127.979C-43.582 127.529 -43.7895 127.07 -43.9811 126.593C-44.484 125.476 -45.3701 122.271 -45.2424 119.516C-44.9231 114.033 -42.4085 109.606 -38.6088 107.016C-33.6516 104.339 -30.8816 104.651 -23.1704 104.383H28.4533C33.2029 104.383 37.33 100.822 38.4076 95.798L40.4352 86.3299C40.8822 84.2162 39.4054 82.1979 37.4098 82.1979H-11.0049C-12.6333 82.1979 -13.8307 80.5607 -13.4635 78.8368L-9.9831 62.5773C-9.64783 61.0094 -8.35464 59.8919 -6.86987 59.8919H42.3351C44.5383 59.8919 46.4461 58.246 46.949 55.9158L49.9824 41.7353C50.4374 39.6216 48.9606 37.5946 46.957 37.5946H-1.37782C-2.9983 37.5946 -4.20367 35.9661 -3.84445 34.2509L-0.419905 18C-0.0926175 16.4234 1.20057 15.2973 2.69332 15.2973H53.1834C54.6283 15.2973 55.8816 14.2232 56.2089 12.6899L56.5362 11.1653L59.5376 -2.86798C59.9926 -4.98163 58.5158 -7 56.5122 -7L56.5042 -7Z" fill="url(#paint2_linear_968_1935)"/>
<g style="mix-blend-mode:overlay" opacity="0.8">
<path d="M-4.11578 10.992L-4.08385 11.4252L56.0333 11.5551L55.8178 12.5513C55.5304 13.8853 54.4448 14.8209 53.1835 14.8209H2.69341C1.00109 14.8209 -0.435782 16.0683 -0.810965 17.8614L-4.23551 34.1123C-4.43508 35.0565 -4.22753 36.0354 -3.66875 36.789C-3.10996 37.5513 -2.27179 37.9844 -1.37774 37.9844H46.9571C47.7873 37.9844 48.5616 38.3916 49.0805 39.0932C49.5993 39.8035 49.7829 40.7131 49.5993 41.588L46.5659 55.7686C46.1029 57.9169 44.3627 59.4068 42.3431 59.4068H-6.8618C-8.54613 59.4068 -9.98301 60.6455 -10.3662 62.4214L-13.8466 78.6809C-14.0462 79.6338 -13.8466 80.6126 -13.2878 81.3749C-12.729 82.1372 -11.8988 82.5704 -10.9968 82.5704H37.4178C38.248 82.5704 39.0144 82.9775 39.5332 83.6792C40.0521 84.3808 40.2437 85.2904 40.0521 86.174L38.0245 95.6421C36.9788 100.502 33.0513 103.889 28.4613 103.889H-23.1783C-24.1921 103.923 -25.1181 103.949 -25.9802 103.975C-31.3765 104.123 -34.0107 104.192 -38.042 106.228L-21.1667 26.1514C-19.3386 17.4716 -12.3299 11.4078 -4.12376 11.4078V10.9747M-4.11578 10.992C-12.4576 10.992 -19.6899 17.2464 -21.5498 26.0735L-38.6167 107.025C-33.5557 104.287 -30.8815 104.608 -23.1703 104.339H28.4534C33.203 104.339 37.33 100.779 38.4077 95.7547L40.4353 86.2866C40.8823 84.1729 39.4055 82.1546 37.4099 82.1546H-11.0048C-12.6332 82.1546 -13.8306 80.5173 -13.4634 78.7935L-9.98301 62.534C-9.64774 60.9661 -8.35455 59.8486 -6.86978 59.8486H42.3351C44.5383 59.8486 46.4462 58.2027 46.9491 55.8725L49.9825 41.692C50.4375 39.5783 48.9607 37.5513 46.9571 37.5513H-1.37774C-2.99821 37.5513 -4.20359 35.9227 -3.84437 34.2076L-0.419818 17.9567C-0.0925303 16.3801 1.20066 15.254 2.69341 15.254H53.1835C54.6284 15.254 55.8817 14.1712 56.209 12.6466L56.5362 11.122L-4.08385 10.992H-4.11578Z" fill="url(#paint3_linear_968_1935)"/>
</g>
</g>
</g>
<rect x="10.5" y="6.5" width="170" height="124" rx="15.5" stroke="#ECECEC"/>
</g>
<defs>
<filter id="filter0_d_968_1935" x="0" y="0" width="191" height="145" filterUnits="userSpaceOnUse" color-interpolation-filters="sRGB">
<feFlood flood-opacity="0" result="BackgroundImageFix"/>
<feColorMatrix in="SourceAlpha" type="matrix" values="0 0 0 0 0 0 0 0 0 0 0 0 0 0 0 0 0 0 127 0" result="hardAlpha"/>
<feOffset dy="4"/>
<feGaussianBlur stdDeviation="5"/>
<feComposite in2="hardAlpha" operator="out"/>
<feColorMatrix type="matrix" values="0 0 0 0 0 0 0 0 0 0 0 0 0 0 0 0 0 0 0.1 0"/>
<feBlend mode="normal" in2="BackgroundImageFix" result="effect1_dropShadow_968_1935"/>
<feBlend mode="normal" in="SourceGraphic" in2="effect1_dropShadow_968_1935" result="shape"/>
</filter>
<linearGradient id="paint0_linear_968_1935" x1="-15" y1="76.1531" x2="135.692" y2="-27.0153" gradientUnits="userSpaceOnUse">
<stop stop-color="#0062CC"/>
<stop offset="1" stop-color="#66AFFF"/>
</linearGradient>
<linearGradient id="paint1_linear_968_1935" x1="-45.354" y1="73.8645" x2="76.7723" y2="73.8645" gradientUnits="userSpaceOnUse">
<stop stop-color="#23376E"/>
<stop offset="1" stop-color="#0457F1"/>
</linearGradient>
<linearGradient id="paint2_linear_968_1935" x1="-54.9972" y1="64.7516" x2="59.6174" y2="64.7516" gradientUnits="userSpaceOnUse">
<stop stop-color="#3AADFF"/>
<stop offset="0.24" stop-color="#45C1F9"/>
<stop offset="0.49" stop-color="#4DCFF6"/>
<stop offset="0.71" stop-color="#50D4F5"/>
</linearGradient>
<linearGradient id="paint3_linear_968_1935" x1="-38.6167" y1="59.0083" x2="56.5362" y2="59.0083" gradientUnits="userSpaceOnUse">
<stop stop-color="#50D4F5" stop-opacity="0"/>
<stop offset="0.41" stop-color="#50D4F5"/>
<stop offset="0.45" stop-color="#5ED7F5"/>
<stop offset="0.59" stop-color="#97E5F9"/>
<stop offset="0.72" stop-color="#C4F0FB"/>
<stop offset="0.84" stop-color="#E4F8FD"/>
<stop offset="0.93" stop-color="#F7FDFE"/>
<stop offset="1" stop-color="white"/>
</linearGradient>
<clipPath id="clip0_968_1935">
<rect x="10" y="6" width="171" height="125" rx="16" fill="white"/>
</clipPath>
</defs>
</svg>
