<svg width="25" height="24" viewBox="0 0 25 24" fill="none" xmlns="http://www.w3.org/2000/svg">
<path fill-rule="evenodd" clip-rule="evenodd" d="M5.67829 5.06891C9.47363 1.27893 15.6433 1.31923 19.4618 5.13778C23.282 8.95797 23.3207 15.1313 19.5258 18.9262C15.7308 22.7211 9.55754 22.6824 5.73735 18.8622C3.4735 16.5984 2.53865 13.5099 2.94008 10.5812C2.99633 10.1708 3.37461 9.88377 3.78498 9.94002C4.19536 9.99627 4.48243 10.3745 4.42619 10.7849C4.08621 13.2652 4.87743 15.881 6.79801 17.8016C10.0425 21.0461 15.266 21.0646 18.4651 17.8655C21.6642 14.6664 21.6456 9.44292 18.4011 6.19844C15.1583 2.95561 9.9385 2.93539 6.73896 6.12957L7.48666 6.13333C7.90087 6.13541 8.23496 6.47288 8.23288 6.88709C8.2308 7.3013 7.89333 7.63539 7.47912 7.63331L4.93357 7.62052C4.5223 7.61845 4.18942 7.28556 4.18735 6.8743L4.17456 4.32874C4.17247 3.91454 4.50657 3.57707 4.92078 3.57498C5.33499 3.5729 5.67246 3.907 5.67454 4.32121L5.67829 5.06891ZM12.5995 7.24992C13.0137 7.24992 13.3495 7.58571 13.3495 7.99992V11.6893L15.6298 13.9696C15.9227 14.2625 15.9227 14.7374 15.6298 15.0302C15.3369 15.3231 14.862 15.3231 14.5692 15.0302L11.8495 12.3106V7.99992C11.8495 7.58571 12.1853 7.24992 12.5995 7.24992Z" fill="#A8A8A8"/>
</svg>
