<svg width="25" height="24" viewBox="0 0 25 24" fill="none" xmlns="http://www.w3.org/2000/svg">
<path d="M12.1997 12C13.8566 12 15.1997 10.6569 15.1997 9C15.1997 7.34315 13.8566 6 12.1997 6C10.5429 6 9.19971 7.34315 9.19971 9C9.19971 10.6569 10.5429 12 12.1997 12Z" stroke="#A8A8A8" stroke-width="1.5"/>
<path d="M12.1997 22C17.7226 22 22.1997 17.5228 22.1997 12C22.1997 6.47715 17.7226 2 12.1997 2C6.67686 2 2.19971 6.47715 2.19971 12C2.19971 17.5228 6.67686 22 12.1997 22Z" stroke="#A8A8A8" stroke-width="1.5"/>
<path d="M18.1688 20C18.0097 17.1085 17.1244 15 12.1996 15C7.27492 15 6.38962 17.1085 6.23047 20" stroke="#A8A8A8" stroke-width="1.5" stroke-linecap="round"/>
</svg>
