<svg width="28" height="28" viewBox="0 0 28 28" fill="none" xmlns="http://www.w3.org/2000/svg">
<rect width="28" height="28" rx="14" fill="#F7F7F7"/>
<path fill-rule="evenodd" clip-rule="evenodd" d="M20.7284 12.2885C20.6847 12.2857 20.6371 12.2857 20.5878 12.2857H20.5755H18.6412C17.0469 12.2857 15.6826 13.5506 15.6826 15.2C15.6826 16.8495 17.0469 18.1143 18.6412 18.1143H20.5755H20.5878C20.6371 18.1143 20.6847 18.1143 20.7284 18.1115C21.376 18.0703 21.9487 17.5596 21.9969 16.8462C22.0001 16.7994 22 16.749 22 16.7023V16.6895V13.7105V13.6978C22 13.6511 22.0001 13.6007 21.9969 13.5539C21.9487 12.8405 21.376 12.3297 20.7284 12.2885ZM18.4698 15.9771C18.8802 15.9771 19.213 15.6292 19.213 15.2C19.213 14.7708 18.8802 14.4229 18.4698 14.4229C18.0593 14.4229 17.7265 14.7708 17.7265 15.2C17.7265 15.6292 18.0593 15.9771 18.4698 15.9771Z" fill="#007AFF"/>
<path fill-rule="evenodd" clip-rule="evenodd" d="M20.5873 19.28C20.7023 19.277 20.7894 19.3843 20.7582 19.4959C20.6033 20.0496 20.3577 20.5214 19.9634 20.9188C19.3864 21.5004 18.6547 21.7585 17.7506 21.881C16.8722 22 15.7498 22 14.3327 22H12.7036C11.2864 22 10.164 22 9.28559 21.881C8.38155 21.7585 7.64982 21.5004 7.07277 20.9188C6.49571 20.3372 6.23963 19.5998 6.11808 18.6886C5.99998 17.8033 5.99999 16.6721 6 15.2438V15.1562C5.99998 13.7279 5.99998 12.5967 6.11808 11.7114C6.23963 10.8002 6.49571 10.0628 7.07277 9.48119C7.64982 8.8996 8.38155 8.6415 9.28559 8.519C10.164 8.39997 11.2864 8.39999 12.7036 8.39999H14.3327C15.7498 8.39998 16.8722 8.39997 17.7506 8.519C18.6547 8.6415 19.3864 8.8996 19.9634 9.48119C20.3577 9.87853 20.6033 10.3504 20.7582 10.9041C20.7894 11.0157 20.7023 11.123 20.5873 11.12L18.6413 11.12C16.4539 11.12 14.526 12.8615 14.526 15.2C14.526 17.5385 16.4539 19.28 18.6413 19.28H20.5873ZM8.89158 11.5086C8.57219 11.5086 8.31327 11.7695 8.31327 12.0914C8.31327 12.4134 8.57219 12.6743 8.89158 12.6743H11.9759C12.2953 12.6743 12.5543 12.4134 12.5543 12.0914C12.5543 11.7695 12.2953 11.5086 11.9759 11.5086H8.89158Z" fill="#007AFF"/>
<path d="M10.6213 7.61951L12.1884 6.46501C13.0299 5.845 14.1701 5.845 15.0116 6.46501L16.5869 7.62557C15.9283 7.59996 15.1927 7.59998 14.3863 7.6H12.6498C11.913 7.59998 11.2353 7.59997 10.6213 7.61951Z" fill="#007AFF"/>
</svg>
